<svg width="46" height="60" viewBox="0 0 46 60" fill="none" xmlns="http://www.w3.org/2000/svg">
<path fill-rule="evenodd" clip-rule="evenodd" d="M18.9364 0H39.8201C42.9018 0 45.4232 2.5214 45.4232 5.60312V44.3457C45.4232 47.4274 42.9018 49.9488 39.8201 49.9488H18.9364C15.8547 49.9488 13.3333 47.4274 13.3333 44.3457V5.60312C13.3333 2.5214 15.8547 0 18.9364 0ZM19.1107 2.46243H39.6458C41.4484 2.46243 42.9232 3.93724 42.9232 5.7398V44.209C42.9232 46.0115 41.4484 47.4864 39.6458 47.4864H19.1107C17.3081 47.4864 15.8333 46.0115 15.8333 44.209V5.7398C15.8333 3.93724 17.3081 2.46243 19.1107 2.46243Z" fill="#FEC015"/>
<path d="M33.2754 7.35132H12.7403C10.9302 7.35132 9.46289 8.47183 9.46289 9.85405V49.8725C9.46289 51.2547 10.9302 52.3752 12.7403 52.3752H33.2754C35.0854 52.3752 36.5528 51.2547 36.5528 49.8725V9.85405C36.5528 8.47183 35.0854 7.35132 33.2754 7.35132Z" fill="white"/>
<path fill-rule="evenodd" clip-rule="evenodd" d="M12.566 4.88879H33.4497C36.5315 4.88879 39.0529 7.4102 39.0529 10.4919V49.2345C39.0529 52.3162 36.5315 54.8376 33.4497 54.8376H12.566C9.48429 54.8376 6.96289 52.3162 6.96289 49.2345V10.4919C6.96289 7.4102 9.48429 4.88879 12.566 4.88879ZM12.7403 7.35123H33.2754C35.078 7.35123 36.5528 8.82603 36.5528 10.6286V49.0978C36.5528 50.9003 35.078 52.3751 33.2754 52.3751H12.7403C10.9378 52.3751 9.46295 50.9003 9.46295 49.0978V10.6286C9.46295 8.82603 10.9378 7.35123 12.7403 7.35123Z" fill="#FEC015"/>
<path fill-rule="evenodd" clip-rule="evenodd" d="M5.60312 9.77771H26.4868C29.5686 9.77771 32.09 12.2991 32.09 15.3808V54.1234C32.09 57.2051 29.5686 59.7265 26.4868 59.7265H5.60312C2.5214 59.7265 0 57.2051 0 54.1234V15.3808C0 12.2991 2.5214 9.77771 5.60312 9.77771ZM5.77743 12.2401H26.3125C28.1151 12.2401 29.5899 13.7149 29.5899 15.5175V53.9867C29.5899 55.7892 28.1151 57.2641 26.3125 57.2641H5.77743C3.97486 57.2641 2.50006 55.7892 2.50006 53.9867V15.5175C2.50006 13.7149 3.97486 12.2401 5.77743 12.2401Z" fill="#FEC015"/>
<path d="M26.3125 12.2401H5.77742C3.96735 12.2401 2.5 13.3606 2.5 14.7428V54.7613C2.5 56.1435 3.96735 57.264 5.77742 57.264H26.3125C28.1225 57.264 29.5899 56.1435 29.5899 54.7613V14.7428C29.5899 13.3606 28.1225 12.2401 26.3125 12.2401Z" fill="white"/>
<path d="M26.1206 18.6654H10.1726C9.54346 18.6654 9.03345 19.2295 9.03345 19.9252C9.03345 20.621 9.54346 21.1851 10.1726 21.1851H26.1206C26.7498 21.1851 27.2598 20.621 27.2598 19.9252C27.2598 19.2295 26.7498 18.6654 26.1206 18.6654Z" fill="#FEC015"/>
<path d="M7.75683 18.0005H4.38854C4.25567 18.0005 4.14795 18.8622 4.14795 19.9252C4.14795 20.9882 4.25567 21.85 4.38854 21.85H7.75683C7.8897 21.85 7.99742 20.9882 7.99742 19.9252C7.99742 18.8622 7.8897 18.0005 7.75683 18.0005Z" fill="#FEC015"/>
<path d="M26.1206 28.4431H10.1726C9.54346 28.4431 9.03345 29.0072 9.03345 29.7029C9.03345 30.3987 9.54346 30.9628 10.1726 30.9628H26.1206C26.7498 30.9628 27.2598 30.3987 27.2598 29.7029C27.2598 29.0072 26.7498 28.4431 26.1206 28.4431Z" fill="#FEC015"/>
<path d="M7.75683 27.7782H4.38854C4.25567 27.7782 4.14795 28.6399 4.14795 29.7029C4.14795 30.7659 4.25567 31.6277 4.38854 31.6277H7.75683C7.8897 31.6277 7.99742 30.7659 7.99742 29.7029C7.99742 28.6399 7.8897 27.7782 7.75683 27.7782Z" fill="#FEC015"/>
<path d="M26.1206 38.9615H10.1726C9.54346 38.9615 9.03345 39.5256 9.03345 40.2214C9.03345 40.9172 9.54346 41.4812 10.1726 41.4812H26.1206C26.7498 41.4812 27.2598 40.9172 27.2598 40.2214C27.2598 39.5256 26.7498 38.9615 26.1206 38.9615Z" fill="#FEC015"/>
<path d="M7.75683 38.2966H4.38854C4.25567 38.2966 4.14795 39.1584 4.14795 40.2214C4.14795 41.2844 4.25567 42.1461 4.38854 42.1461H7.75683C7.8897 42.1461 7.99742 41.2844 7.99742 40.2214C7.99742 39.1584 7.8897 38.2966 7.75683 38.2966Z" fill="#FEC015"/>
<path d="M26.1206 48.4429H10.1726C9.54346 48.4429 9.03345 49.0069 9.03345 49.7027C9.03345 50.3985 9.54346 50.9625 10.1726 50.9625H26.1206C26.7498 50.9625 27.2598 50.3985 27.2598 49.7027C27.2598 49.0069 26.7498 48.4429 26.1206 48.4429Z" fill="#FEC015"/>
<path d="M7.75683 47.778H4.38854C4.25567 47.778 4.14795 48.6397 4.14795 49.7027C4.14795 50.7657 4.25567 51.6274 4.38854 51.6274H7.75683C7.8897 51.6274 7.99742 50.7657 7.99742 49.7027C7.99742 48.6397 7.8897 47.778 7.75683 47.778Z" fill="#FEC015"/>
</svg>
