<svg width="65" height="61" viewBox="0 0 65 61" fill="none" xmlns="http://www.w3.org/2000/svg">
<path fill-rule="evenodd" clip-rule="evenodd" d="M58.1383 44.8418L56.9537 43.708C57.226 43.3598 57.3828 42.914 57.3485 42.4148L61.2734 38.4899C62.1326 37.6941 62.6369 36.5481 62.6495 35.32L62.6513 25.4894C62.6493 22.2622 61.1816 21.1303 58.3514 21.0985L47.5261 21.1001C46.5774 21.1002 45.4642 21.5534 44.3537 22.6565L40.6366 26.3488C40.111 26.2335 39.5597 26.3451 39.1222 26.642L38.0996 25.6634L42.9557 20.8396C44.2842 19.52 45.6161 18.9779 46.7511 18.9777L59.7021 18.9757C62.6626 19.1686 64.7279 21.4122 64.8462 24.2288L64.8442 35.9898C64.8291 37.4592 64.2257 38.8301 63.1978 39.7822L58.1383 44.8417V44.8418Z" fill="url(#paint0_linear_0_1)"/>
<path fill-rule="evenodd" clip-rule="evenodd" d="M42.1509 26.2731H53.9711C55.8908 26.2731 57.4615 27.8437 57.4615 29.7635V40.8643C57.4615 42.784 55.8908 44.3546 53.9711 44.3546H42.1509C40.2312 44.3546 38.6605 42.7839 38.6605 40.8643V29.7635C38.6605 27.8437 40.2312 26.2731 42.1509 26.2731Z" fill="white"/>
<path fill-rule="evenodd" clip-rule="evenodd" d="M41.8159 24.1605H54.3063C57.2497 24.1605 59.6581 26.5689 59.6581 29.5123V41.1152C59.6581 44.0587 57.2497 46.4671 54.3063 46.4671H41.8159C38.8724 46.4671 36.4641 44.0587 36.4641 41.1152V29.5123C36.4641 26.5688 38.8725 24.1605 41.8159 24.1605ZM42.151 26.273H53.9712C55.8909 26.273 57.4616 27.8437 57.4616 29.7634V40.8643C57.4616 42.784 55.8909 44.3546 53.9712 44.3546H42.151C40.2313 44.3546 38.6606 42.7839 38.6606 40.8643V29.7634C38.6606 27.8437 40.2313 26.273 42.151 26.273Z" fill="url(#paint1_linear_0_1)"/>
<path d="M51.1888 28.7921H44.4065C43.7441 28.7921 43.2072 29.2844 43.2072 29.8918C43.2072 30.4991 43.7441 30.9914 44.4065 30.9914H51.1888C51.8512 30.9914 52.3881 30.4991 52.3881 29.8918C52.3881 29.2844 51.8512 28.7921 51.1888 28.7921Z" fill="url(#paint2_linear_0_1)"/>
<path fill-rule="evenodd" clip-rule="evenodd" d="M21.6742 44.8418L20.4896 43.708C20.762 43.3598 20.9187 42.914 20.8844 42.4148L24.8093 38.4899C25.6685 37.6941 26.1729 36.5481 26.1854 35.32L26.1872 25.4894C26.1852 22.2622 24.7175 21.1303 21.8874 21.0985L11.0621 21.1001C10.1134 21.1002 9.00004 21.5534 7.8896 22.6565L4.17248 26.3488C3.64693 26.2335 3.09563 26.3451 2.65806 26.642L1.6355 25.6634L6.49158 20.8396C7.82007 19.52 9.15198 18.9779 10.287 18.9777L23.238 18.9757C26.1985 19.1686 28.2638 21.4122 28.3821 24.2288L28.3801 35.9898C28.365 37.4592 27.7616 38.8301 26.7337 39.7822L21.6742 44.8417V44.8418Z" fill="url(#paint3_linear_0_1)"/>
<path fill-rule="evenodd" clip-rule="evenodd" d="M5.68694 26.2731H17.5071C19.4268 26.2731 20.9975 27.8437 20.9975 29.7635V40.8643C20.9975 42.784 19.4268 44.3546 17.5071 44.3546H5.68694C3.76718 44.3546 2.19653 42.7839 2.19653 40.8643V29.7635C2.19653 27.8437 3.76718 26.2731 5.68694 26.2731Z" fill="white"/>
<path fill-rule="evenodd" clip-rule="evenodd" d="M5.3518 24.1605H17.8422C20.7856 24.1605 23.194 26.5689 23.194 29.5123V41.1152C23.194 44.0587 20.7856 46.4671 17.8422 46.4671H5.3518C2.40827 46.4671 0 44.0587 0 41.1152V29.5123C0 26.5688 2.40837 24.1605 5.3518 24.1605ZM5.68691 26.273H17.5071C19.4267 26.273 20.9974 27.8437 20.9974 29.7634V40.8643C20.9974 42.784 19.4267 44.3546 17.5071 44.3546H5.68691C3.76714 44.3546 2.1965 42.7839 2.1965 40.8643V29.7634C2.1965 27.8437 3.76714 26.273 5.68691 26.273Z" fill="url(#paint4_linear_0_1)"/>
<path d="M14.7247 28.7921H7.94237C7.27999 28.7921 6.74304 29.2844 6.74304 29.8918C6.74304 30.4991 7.27999 30.9914 7.94237 30.9914H14.7247C15.3871 30.9914 15.924 30.4991 15.924 29.8918C15.924 29.2844 15.3871 28.7921 14.7247 28.7921Z" fill="url(#paint5_linear_0_1)"/>
<path fill-rule="evenodd" clip-rule="evenodd" d="M32.52 9.01505e-05C44.9696 9.01505e-05 55.6531 7.55673 60.2372 18.333H57.4324C53.0172 9.00856 43.5223 2.55858 32.52 2.55858C23.0189 2.55858 14.6433 7.36971 9.6907 14.6871L13.8427 13.7475C14.5445 13.5887 15.2486 14.033 15.4075 14.7349C15.5664 15.4369 15.1221 16.1409 14.4203 16.2997L7.48576 17.869C7.38219 17.9076 7.27206 17.9337 7.15704 17.9447C6.44077 18.0143 5.79799 17.4852 5.7283 16.769L5.03324 9.61099C4.96372 8.89473 5.4928 8.25186 6.20916 8.18225C6.92533 8.11274 7.5683 8.64179 7.6379 9.35805L7.96136 12.6901C13.4173 5.01099 22.3828 0 32.52 0V9.01505e-05ZM45.25 50.4062L52.3051 49.5259C52.412 49.4976 52.5241 49.4826 52.6396 49.4828C53.3592 49.484 53.947 50.0737 53.9459 50.7933L53.9341 57.985C53.9329 58.7046 53.3431 59.2924 52.6236 59.2912C51.904 59.29 51.3161 58.7002 51.3173 57.9806L51.3245 53.6222C46.172 57.7486 39.6347 60.2173 32.52 60.2173C22.3561 60.2173 13.3701 55.1799 7.91852 47.4665H11.128C16.179 53.6846 23.8847 57.6588 32.5201 57.6588C38.4138 57.6588 43.875 55.8078 48.3548 52.6559L45.574 53.0029C44.86 53.0919 44.2028 52.5806 44.1137 51.8665C44.0246 51.1524 44.5359 50.4953 45.25 50.4062V50.4062Z" fill="url(#paint6_linear_0_1)"/>
<defs>
<linearGradient id="paint0_linear_0_1" x1="37.2355" y1="33.3762" x2="64.682" y2="33.3" gradientUnits="userSpaceOnUse">
<stop stop-color="#2B496B"/>
<stop offset="1" stop-color="#0385A4"/>
</linearGradient>
<linearGradient id="paint1_linear_0_1" x1="35.7148" y1="36.5793" x2="59.5157" y2="36.5129" gradientUnits="userSpaceOnUse">
<stop stop-color="#2B496B"/>
<stop offset="1" stop-color="#0385A4"/>
</linearGradient>
<linearGradient id="paint2_linear_0_1" x1="42.9105" y1="30.0165" x2="52.3307" y2="29.911" gradientUnits="userSpaceOnUse">
<stop stop-color="#2B496B"/>
<stop offset="1" stop-color="#0385A4"/>
</linearGradient>
<linearGradient id="paint3_linear_0_1" x1="0.771365" y1="33.3762" x2="28.2179" y2="33.3" gradientUnits="userSpaceOnUse">
<stop stop-color="#2B496B"/>
<stop offset="1" stop-color="#0385A4"/>
</linearGradient>
<linearGradient id="paint4_linear_0_1" x1="-0.749354" y1="36.5793" x2="23.0516" y2="36.5129" gradientUnits="userSpaceOnUse">
<stop stop-color="#2B496B"/>
<stop offset="1" stop-color="#0385A4"/>
</linearGradient>
<linearGradient id="paint5_linear_0_1" x1="6.44642" y1="30.0165" x2="15.8666" y2="29.911" gradientUnits="userSpaceOnUse">
<stop stop-color="#2B496B"/>
<stop offset="1" stop-color="#0385A4"/>
</linearGradient>
<linearGradient id="paint6_linear_0_1" x1="3.24337" y1="33.5249" x2="59.8982" y2="33.3855" gradientUnits="userSpaceOnUse">
<stop stop-color="#2B496B"/>
<stop offset="1" stop-color="#0385A4"/>
</linearGradient>
</defs>
</svg>
