<svg width="47" height="43" viewBox="0 0 47 43" fill="none" xmlns="http://www.w3.org/2000/svg">
<path fill-rule="evenodd" clip-rule="evenodd" d="M25.1279 0.766663H5.56939C2.75703 0.766663 0.456055 3.07243 0.456055 5.89063V36.9421C0.456055 39.7603 2.75703 42.066 5.56939 42.066H25.1279C27.9402 42.066 30.2412 39.7603 30.2412 36.9421V33.0065H28.3839V36.588C28.3839 38.5888 26.7502 40.2259 24.7535 40.2259H5.94369C3.94701 40.2259 2.31337 38.5888 2.31337 36.588V6.24467C2.31337 4.24386 3.947 2.6068 5.94369 2.6068H24.7535C26.7502 2.6068 28.3839 4.24386 28.3839 6.24467V10.6642H30.2412V5.89063C30.2412 3.07244 27.9402 0.766668 25.1279 0.766668V0.766663Z" fill="url(#paint0_linear_0_1)"/>
<path fill-rule="evenodd" clip-rule="evenodd" d="M15.3793 11.9297C15.4306 12.414 15.4768 12.6897 15.5593 13.154C14.6223 13.1187 13.604 12.5901 13.4761 13.7338C13.5951 14.1741 13.6441 14.0492 13.8278 14.3457C14.1313 14.3356 14.4858 14.4601 14.8228 14.4956C16.6023 14.6832 15.6819 14.0692 16.4388 15.2649C17.3029 16.63 17.7332 16.8647 17.9657 17.2126C17.7506 17.7898 17.5374 18.2528 17.3613 18.8617C16.5303 21.7347 16.9151 25.8509 17.5342 28.7272L18.3943 32.2083L18.6612 32.9313C18.7997 33.146 18.9338 33.6882 19.0413 33.9788C19.1566 34.2906 19.4261 34.7664 19.4124 35.0812C19.5921 35.2099 19.5555 35.2315 19.6255 35.4438C20.1258 35.6511 19.9342 35.6696 20.6645 35.6782C23.0841 35.7066 23.106 35.7415 22.8634 34.1428C22.6339 32.631 22.3449 30.8935 22.3374 29.324C22.4588 29.3913 22.5896 29.4506 22.7197 29.5192C22.8778 29.6025 22.9015 29.5692 22.9689 29.788C23.0381 30.0121 23.0958 30.458 23.1447 30.7069C23.3346 31.6728 24.2981 35.1718 24.7736 35.5189C25.1151 35.7682 26.2575 35.6777 26.7741 35.6815C27.5269 35.6872 28.045 35.6538 28.0073 34.8005L27.551 30.9043C31.484 31.0808 30.8113 30.5037 31.1066 31.6827C31.2869 32.4026 31.7823 33.7466 31.7557 34.0504C31.9692 34.2033 32.0909 34.7289 32.1617 34.9929C32.6667 35.5156 31.925 35.6608 33.8449 35.673C34.6366 35.678 35.6128 35.8608 35.7359 35.0907C35.785 34.7832 35.3024 31.3271 35.2593 30.6125L35.8571 30.5349C36.1237 31.7189 36.7894 34.2272 37.3441 35.2868C37.6212 35.8161 38.3169 35.6832 39.0523 35.6742C40.949 35.6509 40.8773 35.7598 40.5895 33.455C40.4456 32.3019 40.2151 30.7466 40.2095 29.5817C40.9904 29.4676 42.4508 28.9068 42.8046 28.7763C43.0386 28.6899 43.4372 28.4944 43.6807 28.3695C43.9052 28.2544 44.3447 28.0254 44.5749 27.8977C45.4651 27.404 45.8371 27.3182 45.9553 26.5841C46.02 26.1818 46.0607 25.7736 46.1083 25.3833C46.1615 24.9482 46.4338 23.2539 46.3242 22.9397C46.1162 22.3428 45.0271 22.3892 44.5808 22.0325C43.8628 21.7904 42.9575 21.2358 42.5002 20.7797C42.1538 20.4342 42.0359 20.313 41.7912 19.8115C41.6959 19.6163 41.3317 18.9121 41.2873 18.7154C41.0386 18.4289 40.8829 18.0503 40.6059 17.7196C40.3514 17.4157 40.0263 17.1015 39.8133 16.8261C39.8676 16.6745 39.9138 16.5802 40.0209 16.5037C40.0728 16.3217 40.0845 16.2654 40.1704 16.0781C40.1892 16.0371 40.2308 15.9494 40.2543 15.9098C40.3218 15.7963 40.2906 15.824 40.37 15.7545C40.3407 15.0139 40.8662 14.319 40.3976 12.0622C40.2784 11.4884 40.1935 10.8597 39.5654 10.845C38.992 10.8316 38.3842 11.2439 38.0001 11.2538C37.8273 11.4737 37.5365 11.589 37.3245 11.7463C36.2444 12.5477 36.2215 12.9177 35.645 13.515C35.2027 13.3682 34.92 13.1041 34.4626 12.9243C34.0519 12.7627 33.6751 12.5758 33.2405 12.4126C31.585 11.7908 29.4124 11.4677 28.898 11.486L28.8555 12.7137C29.2847 12.7014 30.7121 12.9491 32.7354 13.6856C33.4631 13.9505 34.7265 14.6228 34.9643 14.698C34.8066 15.3765 33.9596 16.8504 34.036 17.6577C34.0884 18.2114 34.7779 18.4921 35.1936 18.0494C35.5565 17.663 36.1538 13.4124 39.0617 12.3716C39.1232 13.1776 39.2805 13.7999 39.149 14.6577C39.0418 15.3565 38.7835 15.9459 38.4136 16.314C37.5588 17.1649 38.8297 17.4152 39.8722 19.1021C40.217 19.6601 40.4083 20.1819 40.7051 20.7156C41.0045 21.254 41.3733 21.6205 41.7954 21.9978C42.3958 22.5344 43.9862 23.4272 44.9387 23.6458L44.581 26.2931C44.4292 26.5641 41.758 27.643 41.2745 27.8141C39.6536 28.3876 37.2323 28.9604 35.4334 29.1831C34.7204 29.2713 33.8889 29.2125 33.8342 29.9666C33.7967 30.4827 34.1649 33.7829 34.2894 34.2888L33.3855 34.2939C33.2535 33.8634 33.0622 33.4283 32.9101 32.9657C32.7633 32.5188 32.6468 32.0685 32.5177 31.6162C32.0386 29.937 32.3562 29.4454 31.08 29.525C23.8229 29.9773 22.1035 27.0857 21.1811 27.1213C20.7077 27.1396 20.3537 27.6608 20.6291 28.1368C20.8014 28.4348 20.9221 28.2696 20.9541 28.6833C21.0732 30.2183 21.0495 32.7589 21.4961 34.2881C20.5162 34.2956 20.6993 34.457 20.3607 33.5583C20.255 33.2777 20.1879 33.0471 20.1001 32.7833C19.9249 32.2573 19.7568 31.7059 19.5852 31.1752C19.2357 30.0937 19.041 28.9619 18.7787 27.796C18.338 25.8368 18.0357 22.1026 18.4801 20.1125C19.4151 15.9248 22.174 13.6772 26.0855 13.0425C27.6659 12.7861 28.2727 12.738 28.8542 12.7138L28.8938 11.4858C27.979 11.399 26.24 11.6077 25.5882 11.7226C23.9466 12.0123 22.8139 12.5179 21.5507 13.2684C20.2985 14.0125 19.574 14.8803 18.7097 15.9611C18.6363 15.8504 18.3291 15.6026 18.0005 15.1149C17.7741 14.7789 17.6151 14.4834 17.4147 14.148C17.6705 13.8808 18.6168 13.5771 19.0488 12.2453C19.6056 10.5294 18.6025 9.8463 18.4797 9.59902C18.0394 9.46734 17.813 9.27808 17.192 9.34073C16.7279 9.38755 16.4608 9.53692 16.1738 9.75105C15.5444 10.2207 15.4248 10.9757 15.3793 11.9297L15.3793 11.9297ZM16.9372 12.771C17.9028 12.2712 18.0056 10.8765 17.5536 10.7254C17.3343 10.6522 17.084 10.7803 16.985 10.8817C16.6422 11.2328 16.7316 12.4037 16.9372 12.771V12.771ZM37.2211 30.2974C37.6205 32.1668 37.9171 32.71 38.4016 34.2924L39.3095 34.2868C39.1183 33.0429 38.8747 31.2284 38.8594 29.9682L37.2211 30.2974ZM25.6462 34.2924L26.558 34.2939L26.136 30.6693C25.5387 30.5616 25.0031 30.3872 24.4589 30.2259C24.6026 31.5559 25.3437 33.1996 25.6462 34.2924Z" fill="url(#paint1_linear_0_1)"/>
<path fill-rule="evenodd" clip-rule="evenodd" d="M37.1482 20.716C36.0679 20.9521 35.5939 22.2042 35.908 22.7486C36.096 23.0745 36.71 23.2374 37.0245 22.8487C37.2246 22.6013 37.1167 22.442 37.2449 22.2303C37.3538 22.0504 37.6469 21.9668 37.8184 22.1837C38.0425 22.4671 37.8591 23.0896 38.6027 23.0868C39.9751 23.0815 39.143 20.2801 37.1482 20.716Z" fill="#01678C"/>
<path fill-rule="evenodd" clip-rule="evenodd" d="M4.54559 11.4291C4.54146 11.0406 4.77726 10.8868 5.15992 10.8868H8.01163V9.57242C8.01163 9.25017 8.35054 9.20701 8.59231 9.54591L10.2403 11.856L12.322 14.7573C12.4148 14.8865 12.44 15.0206 12.3218 15.1863L10.2403 18.1042L8.64843 20.3356C8.31443 20.8039 8.01163 20.7547 8.01163 20.3335V19.0734H5.16753C4.73667 19.0734 4.54231 18.9059 4.54559 18.4904C4.56582 15.9424 4.57266 13.9771 4.54559 11.4291ZM6.46466 12.723H8.27495V12.0771L10.3641 14.9801L8.27495 18.0187V17.2372H6.46466V12.723Z" fill="#01678C"/>
<defs>
<linearGradient id="paint0_linear_0_1" x1="-1.0051" y1="21.9975" x2="30.4097" y2="21.2685" gradientUnits="userSpaceOnUse">
<stop stop-color="#02416F"/>
<stop offset="1" stop-color="#0098B3"/>
</linearGradient>
<linearGradient id="paint1_linear_0_1" x1="13.6064" y1="22.7296" x2="50.1352" y2="22.7296" gradientUnits="userSpaceOnUse">
<stop stop-color="#02416F"/>
<stop offset="1" stop-color="#0098B3"/>
</linearGradient>
</defs>
</svg>
