<svg width="42" height="41" viewBox="0 0 42 41" fill="none" xmlns="http://www.w3.org/2000/svg">
<path fill-rule="evenodd" clip-rule="evenodd" d="M5.82206 2.83489C5.87625 3.34573 5.92512 3.63655 6.01228 4.1263C5.02191 4.089 3.94554 3.53149 3.8103 4.73787C3.93609 5.20231 3.98792 5.07048 4.18205 5.38328C4.5029 5.37265 4.87761 5.5039 5.23383 5.54137C7.1148 5.73933 6.14193 5.09161 6.94198 6.35291C7.8553 7.79279 8.31016 8.04033 8.55593 8.40736C8.32848 9.01614 8.10315 9.50454 7.917 10.1468C7.03869 13.1772 7.44536 17.5191 8.09981 20.5531L9.00888 24.2249L9.291 24.9876C9.43745 25.2141 9.57922 25.786 9.69277 26.0925C9.81464 26.4214 10.0996 26.9233 10.0851 27.2554C10.275 27.3911 10.2363 27.4139 10.3103 27.6378C10.8391 27.8565 10.6366 27.876 11.4085 27.885C13.9661 27.915 13.9893 27.9519 13.7328 26.2656C13.4903 24.6709 13.1847 22.8381 13.1768 21.1826C13.3052 21.2535 13.4434 21.3162 13.581 21.3885C13.748 21.4763 13.7731 21.4413 13.8444 21.672C13.9175 21.9084 13.9784 22.3788 14.0302 22.6412C14.2308 23.6601 15.2493 27.3509 15.7519 27.717C16.1129 27.98 17.3205 27.8845 17.8664 27.8886C18.6621 27.8945 19.2098 27.8594 19.17 26.9592L18.6876 22.8495C22.8449 23.0357 22.1338 22.427 22.4459 23.6706C22.6365 24.4299 23.1602 25.8476 23.1321 26.1681C23.3577 26.3293 23.4863 26.8837 23.5612 27.1622C24.095 27.7135 23.311 27.8667 25.3404 27.8796C26.1773 27.8849 27.2091 28.0777 27.3392 27.2653C27.3911 26.941 26.8809 23.2955 26.8354 22.5417L27.4673 22.4598C27.7491 23.7087 28.4528 26.3546 29.0391 27.4722C29.3319 28.0305 30.0673 27.8904 30.8446 27.8808C32.8495 27.8563 32.7737 27.9711 32.4695 25.54C32.3174 24.3237 32.0737 22.6832 32.0678 21.4544C32.8932 21.334 34.4369 20.7425 34.8109 20.6048C35.0582 20.5137 35.4795 20.3075 35.737 20.1758C35.9742 20.0544 36.4388 19.8128 36.6822 19.6781C37.623 19.1574 38.0163 19.0669 38.1412 18.2925C38.2096 17.8682 38.2526 17.4376 38.303 17.0259C38.3591 16.5669 38.647 14.7798 38.5312 14.4483C38.3113 13.8187 37.1601 13.8677 36.6883 13.4914C35.9294 13.2361 34.9725 12.6511 34.4891 12.1699C34.123 11.8055 33.9984 11.6776 33.7397 11.1487C33.639 10.9427 33.254 10.2 33.2071 9.99249C32.9442 9.69025 32.7796 9.29096 32.4869 8.94213C32.2178 8.62161 31.8742 8.29008 31.649 7.99968C31.7064 7.83973 31.7553 7.74028 31.8685 7.65953C31.9234 7.46762 31.9357 7.40817 32.0265 7.21068C32.0464 7.1674 32.0903 7.07486 32.1151 7.03314C32.1865 6.9134 32.1535 6.94264 32.2375 6.86933C32.2066 6.08809 32.762 5.35508 32.2666 2.97463C32.1406 2.36935 32.051 1.70619 31.387 1.6907C30.781 1.67658 30.1384 2.11145 29.7325 2.12189C29.5498 2.35388 29.2424 2.47547 29.0183 2.64139C27.8767 3.48669 27.8524 3.877 27.2431 4.50709C26.7756 4.35224 26.4768 4.07369 25.9933 3.88393C25.5592 3.71356 25.1609 3.51637 24.7015 3.34418C22.9516 2.68836 20.6552 2.34756 20.1115 2.36679L20.0666 3.6618C20.5202 3.64887 22.029 3.91013 24.1676 4.687C24.9368 4.9664 26.2722 5.6756 26.5236 5.75488C26.3569 6.47061 25.4616 8.02526 25.5424 8.87683C25.5978 9.46091 26.3266 9.75691 26.766 9.29001C27.1496 8.88246 27.7809 4.39881 30.8546 3.30095C30.9196 4.15116 31.0859 4.8076 30.9469 5.71233C30.8336 6.44948 30.5605 7.07116 30.1696 7.45947C29.266 8.357 30.6093 8.62107 31.7113 10.4004C32.0758 10.9889 32.2779 11.5394 32.5917 12.1023C32.9082 12.6702 33.298 13.0568 33.7442 13.4549C34.3788 14.0209 36.0599 14.9626 37.0666 15.1931L36.6886 17.9855C36.5281 18.2714 33.7046 19.4095 33.1936 19.5899C31.4803 20.1949 28.9209 20.7991 27.0194 21.034C26.2658 21.127 25.3869 21.0649 25.3291 21.8604C25.2895 22.4048 25.6787 25.8859 25.8103 26.4195L24.8548 26.4249C24.7153 25.9708 24.5131 25.5118 24.3523 25.0238C24.1971 24.5525 24.0739 24.0775 23.9376 23.6004C23.4311 21.8291 23.7668 21.3106 22.4178 21.3945C14.747 21.8717 12.9296 18.8216 11.9547 18.8592C11.4542 18.8784 11.0801 19.4282 11.3711 19.9303C11.5533 20.2446 11.6808 20.0704 11.7147 20.5068C11.8405 22.1259 11.8156 24.8058 12.2876 26.4187C11.2518 26.4267 11.4453 26.5969 11.0875 25.649C10.9757 25.353 10.9048 25.1097 10.8119 24.8315C10.6268 24.2767 10.4491 23.695 10.2677 23.1352C9.89827 21.9945 9.69249 20.8006 9.41525 19.5708C8.94938 17.5042 8.6299 13.5654 9.09959 11.4661C10.0879 7.04895 13.0041 4.67812 17.1386 4.00868C18.8091 3.73821 19.4506 3.68746 20.0652 3.66196L20.1071 2.36666C19.14 2.27505 17.3019 2.49516 16.613 2.61645C14.8778 2.92203 13.6805 3.45527 12.3453 4.24697C11.0217 5.03178 10.2559 5.94723 9.34232 7.08719C9.2647 6.9705 8.94007 6.70909 8.59267 6.19461C8.35335 5.84026 8.18531 5.52852 7.97346 5.17471C8.24392 4.89288 9.24414 4.57251 9.70079 3.1678C10.2893 1.35781 9.22898 0.637265 9.09925 0.376432C8.63377 0.237531 8.39448 0.0378942 7.73811 0.103983C7.24752 0.153374 6.96519 0.31092 6.66188 0.536793C5.9966 1.03222 5.87018 1.8286 5.82206 2.83489L5.82206 2.83489ZM7.4687 3.72229C8.48942 3.19506 8.59809 1.72395 8.12025 1.56459C7.88851 1.48733 7.62396 1.62242 7.51927 1.7294C7.15689 2.09978 7.25141 3.33481 7.46871 3.72229H7.4687ZM28.9091 22.2093C29.3312 24.1812 29.6448 24.7542 30.1569 26.4233L31.1165 26.4174C30.9144 25.1053 30.6569 23.1914 30.6408 21.8621L28.9091 22.2093L28.9091 22.2093ZM16.6743 26.4233L17.6381 26.4249L17.192 22.6016C16.5607 22.488 15.9945 22.304 15.4192 22.1339C15.5711 23.5368 16.3546 25.2706 16.6743 26.4233H16.6743Z" fill="url(#paint0_linear_0_1)"/>
<path fill-rule="evenodd" clip-rule="evenodd" d="M28.832 12.1028C27.6901 12.3518 27.1891 13.6725 27.5211 14.2468C27.7198 14.5905 28.3688 14.7624 28.7012 14.3523C28.9128 14.0913 28.7987 13.9234 28.9342 13.7C29.0493 13.5103 29.3591 13.4221 29.5404 13.6509C29.7773 13.9499 29.5835 14.6065 30.3695 14.6035C31.82 14.5979 30.9405 11.643 28.832 12.1028L28.832 12.1028Z" fill="url(#paint1_linear_0_1)"/>
<path fill-rule="evenodd" clip-rule="evenodd" d="M5.69947 29.783H36.0949C39.0671 29.783 41.4989 32.2147 41.4989 35.1869C41.4989 38.1592 39.0671 40.591 36.0949 40.591H5.69947C2.72726 40.591 0.295471 38.1592 0.295471 35.1869C0.295471 32.2147 2.72725 29.783 5.69947 29.783ZM5.85763 31.4628H35.9367C37.985 31.4628 39.6608 33.1387 39.6608 35.1869V35.187C39.6608 37.2352 37.985 38.9111 35.9367 38.9111H5.85763C3.80938 38.9111 2.13354 37.2352 2.13354 35.187V35.1869C2.13354 33.1387 3.80938 31.4628 5.85763 31.4628Z" fill="url(#paint2_linear_0_1)"/>
<path d="M7.5218 36.851C8.46707 36.851 9.23336 36.0847 9.23336 35.1395C9.23336 34.1942 8.46707 33.4279 7.5218 33.4279C6.57653 33.4279 5.81024 34.1942 5.81024 35.1395C5.81024 36.0847 6.57653 36.851 7.5218 36.851Z" fill="url(#paint3_linear_0_1)"/>
<path d="M16.5866 36.851C17.5318 36.851 18.2981 36.0847 18.2981 35.1395C18.2981 34.1942 17.5318 33.4279 16.5866 33.4279C15.6413 33.4279 14.875 34.1942 14.875 35.1395C14.875 36.0847 15.6413 36.851 16.5866 36.851Z" fill="url(#paint4_linear_0_1)"/>
<path d="M25.2077 36.851C26.1529 36.851 26.9192 36.0847 26.9192 35.1395C26.9192 34.1942 26.1529 33.4279 25.2077 33.4279C24.2624 33.4279 23.4961 34.1942 23.4961 35.1395C23.4961 36.0847 24.2624 36.851 25.2077 36.851Z" fill="url(#paint5_linear_0_1)"/>
<path d="M34.3991 36.851C35.3443 36.851 36.1106 36.0847 36.1106 35.1395C36.1106 34.1942 35.3443 33.4279 34.3991 33.4279C33.4538 33.4279 32.6875 34.1942 32.6875 35.1395C32.6875 36.0847 33.4538 36.851 34.3991 36.851Z" fill="url(#paint6_linear_0_1)"/>
<defs>
<linearGradient id="paint0_linear_0_1" x1="3.81028" y1="13.9971" x2="38.5584" y2="13.9971" gradientUnits="userSpaceOnUse">
<stop stop-color="#02416F"/>
<stop offset="1" stop-color="#0098B3"/>
</linearGradient>
<linearGradient id="paint1_linear_0_1" x1="27.4203" y1="13.3288" x2="31.0843" y2="13.3288" gradientUnits="userSpaceOnUse">
<stop stop-color="#02416F"/>
<stop offset="1" stop-color="#0098B3"/>
</linearGradient>
<linearGradient id="paint2_linear_0_1" x1="0.295447" y1="35.1869" x2="41.4989" y2="35.1869" gradientUnits="userSpaceOnUse">
<stop stop-color="#02416F"/>
<stop offset="1" stop-color="#0098B3"/>
</linearGradient>
<linearGradient id="paint3_linear_0_1" x1="5.81024" y1="35.1395" x2="9.23336" y2="35.1395" gradientUnits="userSpaceOnUse">
<stop stop-color="#02416F"/>
<stop offset="1" stop-color="#0098B3"/>
</linearGradient>
<linearGradient id="paint4_linear_0_1" x1="14.875" y1="35.1395" x2="18.2981" y2="35.1395" gradientUnits="userSpaceOnUse">
<stop stop-color="#02416F"/>
<stop offset="1" stop-color="#0098B3"/>
</linearGradient>
<linearGradient id="paint5_linear_0_1" x1="23.4961" y1="35.1395" x2="26.9192" y2="35.1395" gradientUnits="userSpaceOnUse">
<stop stop-color="#02416F"/>
<stop offset="1" stop-color="#0098B3"/>
</linearGradient>
<linearGradient id="paint6_linear_0_1" x1="32.6875" y1="35.1395" x2="36.1106" y2="35.1395" gradientUnits="userSpaceOnUse">
<stop stop-color="#02416F"/>
<stop offset="1" stop-color="#0098B3"/>
</linearGradient>
</defs>
</svg>
