<svg width="75" height="68" viewBox="0 0 75 68" fill="none" xmlns="http://www.w3.org/2000/svg">
<path fill-rule="evenodd" clip-rule="evenodd" d="M33.9204 0H66.1908C70.8311 0 74.6276 3.79648 74.6276 8.43668V59.5633C74.6276 64.2035 70.8311 68 66.1908 68H33.9204C29.2802 68 25.4836 64.2035 25.4836 59.5633V53.0834H28.5482V58.9804C28.5482 62.2747 31.2436 64.9702 34.538 64.9702H65.5733C68.8677 64.9702 71.5631 62.2748 71.5631 58.9804V9.01962C71.5631 5.72525 68.8677 3.02979 65.5733 3.02979H34.538C31.2436 3.02979 28.5482 5.72524 28.5482 9.01962V16.2965H25.4836V8.43668C25.4836 3.79648 29.2802 0 33.9204 0Z" fill="url(#paint0_linear_0_1)"/>
<path fill-rule="evenodd" clip-rule="evenodd" d="M3.14027 18.3801C3.22485 19.1775 3.30113 19.6315 3.43719 20.3959C1.89126 20.3377 0.211109 19.4675 0 21.3506C0.196341 22.0755 0.277255 21.8698 0.580278 22.358C1.08112 22.3414 1.66602 22.5463 2.22206 22.6048C5.15818 22.9138 3.63957 21.9027 4.88841 23.8716C6.31406 26.1192 7.02409 26.5056 7.40772 27.0785C7.05268 28.0288 6.70095 28.7911 6.41037 29.7937C5.03937 34.524 5.67416 41.3016 6.69574 46.0374L8.11476 51.769L8.55513 52.9596C8.78374 53.313 9.00503 54.2058 9.18229 54.6842C9.37252 55.1976 9.81726 55.9811 9.79464 56.4993C10.091 56.7112 10.0308 56.7468 10.1462 57.0964C10.9717 57.4377 10.6556 57.4681 11.8605 57.4823C15.8528 57.5291 15.8889 57.5866 15.4886 54.9543C15.11 52.4651 14.6331 49.6043 14.6207 47.0201C14.8211 47.1308 15.0369 47.2285 15.2516 47.3414C15.5123 47.4785 15.5514 47.4238 15.6627 47.784C15.7768 48.1531 15.872 48.8872 15.9527 49.2969C16.266 50.8873 17.8557 56.6484 18.6403 57.22C19.2038 57.6304 21.0888 57.4814 21.941 57.4878C23.1831 57.4971 24.038 57.4422 23.9758 56.0372L23.2228 49.6221C29.7121 49.9127 28.6021 48.9625 29.0894 50.9037C29.3869 52.0889 30.2044 54.3019 30.1605 54.8022C30.5127 55.0539 30.7134 55.9192 30.8302 56.3539C31.6635 57.2146 30.4397 57.4536 33.6076 57.4738C34.9138 57.4821 36.5245 57.783 36.7275 56.5149C36.8086 56.0087 36.0122 50.3182 35.9412 49.1415L36.9275 49.0138C37.3673 50.9633 38.4658 55.0933 39.381 56.8379C39.8381 57.7093 40.986 57.4906 42.1994 57.4757C45.3289 57.4373 45.2105 57.6166 44.7358 53.8218C44.4983 51.9232 44.1179 49.3624 44.1087 47.4443C45.3972 47.2564 47.8068 46.3331 48.3905 46.1181C48.7766 45.976 49.4342 45.654 49.8361 45.4484C50.2064 45.259 50.9316 44.8818 51.3115 44.6716C52.7802 43.8587 53.394 43.7175 53.589 42.5087C53.6958 41.8464 53.7629 41.1742 53.8415 40.5316C53.9292 39.8152 54.3785 37.0256 54.1978 36.5081C53.8545 35.5253 52.0576 35.6018 51.3211 35.0145C50.1365 34.6159 48.6428 33.7027 47.8882 32.9517C47.3167 32.3828 47.1222 32.1832 46.7184 31.3576C46.5613 31.0361 45.9603 29.8767 45.887 29.5528C45.4767 29.081 45.2198 28.4577 44.7628 27.9132C44.3429 27.4129 43.8065 26.8954 43.455 26.4421C43.5446 26.1924 43.6208 26.0372 43.7976 25.9111C43.8832 25.6116 43.9025 25.5188 44.0443 25.2105C44.0753 25.1429 44.1438 24.9985 44.1826 24.9334C44.294 24.7465 44.2425 24.7921 44.3736 24.6777C44.3253 23.4582 45.1923 22.314 44.4191 18.5982C44.2224 17.6534 44.0824 16.6183 43.046 16.5941C42.1 16.572 41.0971 17.2508 40.4634 17.2671C40.1782 17.6293 39.6984 17.8191 39.3486 18.0781C37.5666 19.3975 37.5287 20.0068 36.5776 20.9903C35.8478 20.7486 35.3813 20.3138 34.6267 20.0176C33.9491 19.7517 33.3274 19.4439 32.6103 19.1751C29.8787 18.1514 26.2941 17.6194 25.4454 17.6494L25.3753 19.6709C26.0834 19.6507 28.4385 20.0585 31.7769 21.2712C32.9775 21.7073 35.0621 22.8143 35.4544 22.9381C35.1942 24.0553 33.7968 26.4821 33.9229 27.8113C34.0093 28.723 35.1469 29.1851 35.8329 28.4563C36.4316 27.8201 37.417 20.8213 42.2149 19.1076C42.3164 20.4348 42.576 21.4594 42.3589 22.8717C42.1821 24.0223 41.7559 24.9927 41.1457 25.5989C39.7352 26.9999 41.8321 27.4121 43.5522 30.1895C44.1212 31.1082 44.4367 31.9675 44.9264 32.8461C45.4205 33.7326 46.029 34.3361 46.7254 34.9574C47.7161 35.8409 50.3401 37.3109 51.9116 37.6708L51.3216 42.0296C51.071 42.4758 46.6636 44.2523 45.8659 44.534C43.1916 45.4783 39.1965 46.4214 36.2284 46.788C35.0521 46.9333 33.6801 46.8364 33.5898 48.0781C33.528 48.9279 34.1356 54.3617 34.3409 55.1946L32.8496 55.2031C32.6318 54.4942 32.3161 53.7778 32.0652 53.0161C31.8229 52.2803 31.6306 51.5389 31.4177 50.7942C30.6272 48.0293 31.1512 47.2199 29.0455 47.3509C17.0717 48.0957 14.2347 43.3346 12.713 43.3933C11.9318 43.4233 11.3478 44.2815 11.8021 45.0652C12.0865 45.5559 12.2855 45.284 12.3384 45.9651C12.5348 48.4925 12.4958 52.6757 13.2326 55.1935C11.6158 55.2059 11.9179 55.4715 11.3593 53.9919C11.1849 53.5299 11.0742 53.1501 10.9292 52.7158C10.6402 51.8498 10.3628 50.9419 10.0797 50.068C9.50302 48.2874 9.18181 46.4238 8.74904 44.5041C8.02186 41.2782 7.52315 35.1299 8.25632 31.8531C9.79904 24.9581 14.351 21.2573 20.8048 20.2123C23.4125 19.7902 24.4137 19.7109 25.3731 19.6711L25.4385 17.6492C23.929 17.5062 21.0598 17.8498 19.9844 18.0391C17.2759 18.5161 15.4069 19.3485 13.3227 20.5843C11.2566 21.8094 10.0612 23.2383 8.6352 25.0178C8.51403 24.8356 8.0073 24.4276 7.46503 23.6245C7.09147 23.0714 6.82915 22.5847 6.49847 22.0325C6.92065 21.5925 8.48194 21.0924 9.19476 18.8998C10.1134 16.0745 8.45828 14.9497 8.25577 14.5426C7.52919 14.3257 7.15566 14.0141 6.1311 14.1173C5.3653 14.1944 4.9246 14.4403 4.45115 14.7929C3.41267 15.5662 3.21534 16.8093 3.14023 18.3801L3.14027 18.3801ZM5.71061 19.7653C7.3039 18.9423 7.47354 16.646 6.72765 16.3972C6.36591 16.2766 5.95296 16.4875 5.78954 16.6545C5.22387 17.2326 5.37141 19.1605 5.71061 19.7653H5.71061ZM39.1781 48.6227C39.837 51.7008 40.3265 52.5952 41.1258 55.2005L42.6238 55.1914C42.3083 53.1433 41.9064 50.1557 41.8812 48.0808L39.1781 48.6227L39.1781 48.6227ZM20.0801 55.2005L21.5846 55.2031L20.8883 49.2351C19.9027 49.0578 19.019 48.7705 18.121 48.5051C18.3581 50.6948 19.581 53.4013 20.0801 55.2005Z" fill="url(#paint1_linear_0_1)"/>
<path fill-rule="evenodd" clip-rule="evenodd" d="M39.0576 32.847C37.2752 33.2357 36.4932 35.2972 37.0113 36.1936C37.3215 36.7302 38.3346 36.9985 38.8535 36.3584C39.1837 35.951 39.0057 35.6888 39.2171 35.3402C39.3969 35.044 39.8805 34.9064 40.1634 35.2635C40.5332 35.7302 40.2306 36.7551 41.4575 36.7504C43.7218 36.7417 42.3489 32.1292 39.0576 32.847H39.0576Z" fill="url(#paint2_linear_0_1)"/>
<path fill-rule="evenodd" clip-rule="evenodd" d="M53.1246 18.0916C53.1178 17.4519 53.5068 17.1987 54.1382 17.1987H58.8434V15.0346C58.8434 14.504 59.4026 14.4329 59.8015 14.9909L62.5205 18.7945L65.9553 23.5715C66.1083 23.7842 66.15 24.005 65.9549 24.2779L62.5205 29.0822L59.8941 32.7563C59.343 33.5273 58.8434 33.4464 58.8434 32.7528V30.678H54.1508C53.4399 30.678 53.1192 30.4023 53.1246 29.7182C53.158 25.5228 53.1693 22.2869 53.1246 18.0916V18.0916ZM56.291 20.222H59.2779V19.1585L62.7249 23.9384L59.2779 28.9415V27.6547H56.291V20.222Z" fill="url(#paint3_linear_0_1)"/>
<defs>
<linearGradient id="paint0_linear_0_1" x1="25.4836" y1="33.9999" x2="74.6275" y2="33.9999" gradientUnits="userSpaceOnUse">
<stop stop-color="#02416F"/>
<stop offset="1" stop-color="#0098B3"/>
</linearGradient>
<linearGradient id="paint1_linear_0_1" x1="-3.21373e-05" y1="35.8038" x2="54.2402" y2="35.8038" gradientUnits="userSpaceOnUse">
<stop stop-color="#02416F"/>
<stop offset="1" stop-color="#0098B3"/>
</linearGradient>
<linearGradient id="paint2_linear_0_1" x1="36.854" y1="34.7608" x2="42.5733" y2="34.7608" gradientUnits="userSpaceOnUse">
<stop stop-color="#02416F"/>
<stop offset="1" stop-color="#0098B3"/>
</linearGradient>
<linearGradient id="paint3_linear_0_1" x1="53.1245" y1="23.9538" x2="66.0861" y2="23.9538" gradientUnits="userSpaceOnUse">
<stop stop-color="#02416F"/>
<stop offset="1" stop-color="#0098B3"/>
</linearGradient>
</defs>
</svg>
