<svg width="63" height="60" viewBox="0 0 63 60" fill="none" xmlns="http://www.w3.org/2000/svg">
<path fill-rule="evenodd" clip-rule="evenodd" d="M24.8319 57.9301L23.4747 56.6312C23.7867 56.2323 23.9663 55.7215 23.9269 55.1496L28.4236 50.653C29.4079 49.7412 29.9858 48.4283 30.0002 47.0213L30.0022 35.7585C29.9999 32.0611 28.3185 30.7644 25.076 30.7279L12.6736 30.7298C11.5867 30.73 10.3112 31.2491 9.03897 32.5128L4.78034 36.7431C4.17818 36.611 3.54655 36.7388 3.04531 37.079L1.87378 35.9578L7.43735 30.4313C8.95936 28.9194 10.4853 28.2984 11.7857 28.2982L26.6235 28.2959C30.0152 28.5168 32.3814 31.0873 32.517 34.3143L32.5146 47.7887C32.4975 49.4721 31.806 51.0428 30.6284 52.1335L24.8319 57.9301H24.8319Z" fill="url(#paint0_linear_0_1)"/>
<path fill-rule="evenodd" clip-rule="evenodd" d="M6.51547 36.6562H20.0576C22.257 36.6562 24.0565 38.4557 24.0565 40.6551V53.3731C24.0565 55.5725 22.257 57.372 20.0576 57.372H6.51547C4.31609 57.372 2.5166 55.5725 2.5166 53.3731V40.6551C2.5166 38.4557 4.31609 36.6562 6.51547 36.6562Z" fill="white"/>
<path fill-rule="evenodd" clip-rule="evenodd" d="M6.13151 34.236H20.4415C23.8138 34.236 26.573 36.9952 26.573 40.3675V53.6606C26.573 57.033 23.8138 59.7922 20.4415 59.7922H6.13151C2.7592 59.7922 0 57.033 0 53.6606V40.3675C0 36.9952 2.7592 34.236 6.13151 34.236ZM6.51541 36.6562H20.0576C22.2569 36.6562 24.0564 38.4557 24.0564 40.6551V53.3731C24.0564 55.5725 22.2569 57.372 20.0576 57.372H6.51541C4.31603 57.372 2.51654 55.5725 2.51654 53.3731V40.6551C2.51654 38.4557 4.31603 36.6562 6.51541 36.6562Z" fill="url(#paint1_linear_0_1)"/>
<path d="M16.87 39.5424H9.09964C8.34077 39.5424 7.72559 40.1064 7.72559 40.8022C7.72559 41.498 8.34077 42.062 9.09964 42.062H16.87C17.6289 42.062 18.2441 41.498 18.2441 40.8022C18.2441 40.1064 17.6289 39.5424 16.87 39.5424Z" fill="url(#paint2_linear_0_1)"/>
<path fill-rule="evenodd" clip-rule="evenodd" d="M55.0538 57.9301L53.6966 56.6312C54.0086 56.2323 54.1882 55.7215 54.1488 55.1496L58.6455 50.653C59.6298 49.7412 60.2078 48.4283 60.2222 47.0213L60.2241 35.7585C60.2219 32.0611 58.5404 30.7644 55.2979 30.7279L42.8955 30.7298C41.8086 30.73 40.5331 31.2491 39.2609 32.5128L35.0023 36.7431C34.4001 36.611 33.7685 36.7388 33.2672 37.079L32.0957 35.9578L37.6593 30.4313C39.1813 28.9194 40.7073 28.2984 42.0076 28.2982L56.8454 28.2959C60.2372 28.5168 62.6033 31.0873 62.7389 34.3143L62.7366 47.7887C62.7194 49.4721 62.0279 51.0428 60.8503 52.1335L55.0538 57.9301H55.0538Z" fill="url(#paint3_linear_0_1)"/>
<path fill-rule="evenodd" clip-rule="evenodd" d="M36.7374 36.6562H50.2796C52.4789 36.6562 54.2784 38.4557 54.2784 40.6551V53.3731C54.2784 55.5725 52.4789 57.372 50.2796 57.372H36.7374C34.538 57.372 32.7385 55.5725 32.7385 53.3731V40.6551C32.7385 38.4557 34.538 36.6562 36.7374 36.6562Z" fill="white"/>
<path fill-rule="evenodd" clip-rule="evenodd" d="M36.3534 34.236H50.6634C54.0357 34.236 56.7949 36.9952 56.7949 40.3675V53.6606C56.7949 57.033 54.0357 59.7922 50.6634 59.7922H36.3534C32.9811 59.7922 30.2219 57.033 30.2219 53.6606V40.3675C30.2219 36.9952 32.9811 34.236 36.3534 34.236ZM36.7373 36.6562H50.2795C52.4789 36.6562 54.2784 38.4557 54.2784 40.6551V53.3731C54.2784 55.5725 52.4789 57.372 50.2795 57.372H36.7373C34.538 57.372 32.7385 55.5725 32.7385 53.3731V40.6551C32.7385 38.4557 34.5379 36.6562 36.7373 36.6562Z" fill="url(#paint4_linear_0_1)"/>
<path d="M47.0917 39.5424H39.3213C38.5624 39.5424 37.9473 40.1064 37.9473 40.8022C37.9473 41.498 38.5624 42.062 39.3213 42.062H47.0917C47.8506 42.062 48.4657 41.498 48.4657 40.8022C48.4657 40.1064 47.8506 39.5424 47.0917 39.5424Z" fill="url(#paint5_linear_0_1)"/>
<path fill-rule="evenodd" clip-rule="evenodd" d="M24.8319 29.6342L23.4747 28.3353C23.7867 27.9364 23.9663 27.4256 23.9269 26.8537L28.4236 22.3571C29.4079 21.4453 29.9858 20.1324 30.0002 18.7254L30.0022 7.46258C29.9999 3.76524 28.3185 2.46849 25.076 2.43199L12.6736 2.43391C11.5867 2.43405 10.3112 2.95321 9.03897 4.21692L4.78034 8.44717C4.17818 8.31507 3.54655 8.4429 3.04531 8.78313L1.87378 7.66192L7.43735 2.13541C8.95936 0.623542 10.4853 0.00251755 11.7857 0.00230682L26.6235 0C30.0152 0.220888 32.3814 2.79139 32.517 6.01844L32.5146 19.4928C32.4975 21.1762 31.806 22.7469 30.6284 23.8376L24.8319 29.6342L24.8319 29.6342Z" fill="url(#paint6_linear_0_1)"/>
<path fill-rule="evenodd" clip-rule="evenodd" d="M6.51547 8.36035H20.0576C22.257 8.36035 24.0565 10.1598 24.0565 12.3592V25.0772C24.0565 27.2766 22.257 29.0761 20.0576 29.0761H6.51547C4.31609 29.0761 2.5166 27.2766 2.5166 25.0772V12.3592C2.5166 10.1598 4.31609 8.36035 6.51547 8.36035Z" fill="white"/>
<path fill-rule="evenodd" clip-rule="evenodd" d="M6.13151 5.94006H20.4415C23.8138 5.94006 26.573 8.69926 26.573 12.0716V25.3647C26.573 28.7371 23.8138 31.4963 20.4415 31.4963H6.13151C2.7592 31.4963 0 28.7371 0 25.3647V12.0716C0 8.69926 2.7592 5.94006 6.13151 5.94006ZM6.51541 8.36033H20.0576C22.2569 8.36033 24.0564 10.1598 24.0564 12.3592V25.0772C24.0564 27.2766 22.2569 29.0761 20.0576 29.0761H6.51541C4.31603 29.0761 2.51654 27.2766 2.51654 25.0772V12.3592C2.51654 10.1598 4.31603 8.36033 6.51541 8.36033Z" fill="url(#paint7_linear_0_1)"/>
<path d="M16.8698 11.2465H9.09939C8.34053 11.2465 7.72534 11.8105 7.72534 12.5063C7.72534 13.2021 8.34053 13.7661 9.09939 13.7661H16.8698C17.6286 13.7661 18.2438 13.2021 18.2438 12.5063C18.2438 11.8105 17.6286 11.2465 16.8698 11.2465Z" fill="url(#paint8_linear_0_1)"/>
<path fill-rule="evenodd" clip-rule="evenodd" d="M55.0538 29.6342L53.6966 28.3353C54.0086 27.9364 54.1882 27.4256 54.1488 26.8537L58.6455 22.3571C59.6298 21.4453 60.2078 20.1324 60.2222 18.7254L60.2241 7.46258C60.2219 3.76524 58.5404 2.46849 55.2979 2.43199L42.8955 2.43391C41.8086 2.43405 40.5331 2.95321 39.2609 4.21692L35.0023 8.44717C34.4001 8.31507 33.7685 8.4429 33.2672 8.78313L32.0957 7.66192L37.6593 2.13541C39.1813 0.623542 40.7073 0.00251755 42.0076 0.00230682L56.8454 0C60.2372 0.220888 62.6033 2.79139 62.7389 6.01844L62.7366 19.4928C62.7194 21.1762 62.0279 22.7469 60.8503 23.8376L55.0538 29.6342L55.0538 29.6342Z" fill="url(#paint9_linear_0_1)"/>
<path fill-rule="evenodd" clip-rule="evenodd" d="M36.7374 8.36035H50.2796C52.4789 8.36035 54.2784 10.1598 54.2784 12.3592V25.0772C54.2784 27.2766 52.4789 29.0761 50.2796 29.0761H36.7374C34.538 29.0761 32.7385 27.2766 32.7385 25.0772V12.3592C32.7385 10.1598 34.538 8.36035 36.7374 8.36035Z" fill="white"/>
<path fill-rule="evenodd" clip-rule="evenodd" d="M36.3534 5.94006H50.6634C54.0357 5.94006 56.7949 8.69926 56.7949 12.0716V25.3647C56.7949 28.7371 54.0357 31.4963 50.6634 31.4963H36.3534C32.9811 31.4963 30.2219 28.7371 30.2219 25.3647V12.0716C30.2219 8.69926 32.9811 5.94006 36.3534 5.94006ZM36.7373 8.36033H50.2795C52.4789 8.36033 54.2784 10.1598 54.2784 12.3592V25.0772C54.2784 27.2766 52.4789 29.0761 50.2795 29.0761H36.7373C34.538 29.0761 32.7385 27.2766 32.7385 25.0772V12.3592C32.7385 10.1598 34.5379 8.36033 36.7373 8.36033Z" fill="url(#paint10_linear_0_1)"/>
<path d="M47.0919 11.2465H39.3216C38.5627 11.2465 37.9475 11.8105 37.9475 12.5063C37.9475 13.2021 38.5627 13.7661 39.3216 13.7661H47.0919C47.8508 13.7661 48.466 13.2021 48.466 12.5063C48.466 11.8105 47.8508 11.2465 47.0919 11.2465Z" fill="url(#paint11_linear_0_1)"/>
<defs>
<linearGradient id="paint0_linear_0_1" x1="1.87378" y1="43.113" x2="32.517" y2="43.113" gradientUnits="userSpaceOnUse">
<stop stop-color="#02416F"/>
<stop offset="1" stop-color="#0688A8"/>
</linearGradient>
<linearGradient id="paint1_linear_0_1" x1="0" y1="47.0141" x2="26.573" y2="47.0141" gradientUnits="userSpaceOnUse">
<stop stop-color="#02416F"/>
<stop offset="1" stop-color="#0688A8"/>
</linearGradient>
<linearGradient id="paint2_linear_0_1" x1="7.72559" y1="40.8022" x2="18.2441" y2="40.8022" gradientUnits="userSpaceOnUse">
<stop stop-color="#02416F"/>
<stop offset="1" stop-color="#0688A8"/>
</linearGradient>
<linearGradient id="paint3_linear_0_1" x1="32.0957" y1="43.113" x2="62.7389" y2="43.113" gradientUnits="userSpaceOnUse">
<stop stop-color="#02416F"/>
<stop offset="1" stop-color="#0688A8"/>
</linearGradient>
<linearGradient id="paint4_linear_0_1" x1="30.2219" y1="47.0141" x2="56.7949" y2="47.0141" gradientUnits="userSpaceOnUse">
<stop stop-color="#02416F"/>
<stop offset="1" stop-color="#0688A8"/>
</linearGradient>
<linearGradient id="paint5_linear_0_1" x1="37.9473" y1="40.8022" x2="48.4657" y2="40.8022" gradientUnits="userSpaceOnUse">
<stop stop-color="#02416F"/>
<stop offset="1" stop-color="#0688A8"/>
</linearGradient>
<linearGradient id="paint6_linear_0_1" x1="1.87378" y1="14.8171" x2="32.517" y2="14.8171" gradientUnits="userSpaceOnUse">
<stop stop-color="#02416F"/>
<stop offset="1" stop-color="#0688A8"/>
</linearGradient>
<linearGradient id="paint7_linear_0_1" x1="0" y1="18.7182" x2="26.573" y2="18.7182" gradientUnits="userSpaceOnUse">
<stop stop-color="#02416F"/>
<stop offset="1" stop-color="#0688A8"/>
</linearGradient>
<linearGradient id="paint8_linear_0_1" x1="7.72534" y1="12.5063" x2="18.2438" y2="12.5063" gradientUnits="userSpaceOnUse">
<stop stop-color="#02416F"/>
<stop offset="1" stop-color="#0688A8"/>
</linearGradient>
<linearGradient id="paint9_linear_0_1" x1="32.0957" y1="14.8171" x2="62.7389" y2="14.8171" gradientUnits="userSpaceOnUse">
<stop stop-color="#02416F"/>
<stop offset="1" stop-color="#0688A8"/>
</linearGradient>
<linearGradient id="paint10_linear_0_1" x1="30.2219" y1="18.7182" x2="56.7949" y2="18.7182" gradientUnits="userSpaceOnUse">
<stop stop-color="#02416F"/>
<stop offset="1" stop-color="#0688A8"/>
</linearGradient>
<linearGradient id="paint11_linear_0_1" x1="37.9475" y1="12.5063" x2="48.466" y2="12.5063" gradientUnits="userSpaceOnUse">
<stop stop-color="#02416F"/>
<stop offset="1" stop-color="#0688A8"/>
</linearGradient>
</defs>
</svg>
